<svg width="32" height="32" viewBox="0 0 32 32" fill="none" xmlns="http://www.w3.org/2000/svg">
<path d="M11.7172 28.509L3 23.496V19.6072L11.7172 24.6206L20.4341 19.6072V23.496L11.7172 28.509Z" fill="#4CA6E6"/>
<path d="M20.2826 3.45822L11.5654 8.47122V12.3594L20.2826 7.34638L28.9995 12.3594V8.47122L20.2826 3.45822Z" fill="#4CA6E6"/>
<path d="M3 18.5629L11.7172 23.5762L15.0975 21.6319L6.3806 16.6186V6.59199L3 8.53623V18.5629Z" fill="#4CA6E6"/>
<path d="M24.7233 25.987L16.0061 31L12.6255 29.0558L21.3424 24.0428V14.0161L24.7233 15.9604V25.987Z" fill="#4CA6E6"/>
<path d="M7.30664 6.01359L7.30696 16.0399L10.6876 17.9841V7.9575L19.4044 2.94451L16.0239 0.999954L7.30664 6.01359Z" fill="#4CA6E6"/>
<path d="M28.9993 13.4039V23.4305L25.6187 25.3748V15.3484L16.9019 10.3348L20.2825 8.39025L28.9993 13.4039Z" fill="#4CA6E6"/>
</svg>
